<svg xmlns="http://www.w3.org/2000/svg" width="1200" height="675" viewBox="0 0 1200 675" role="img" aria-label="Artemis browser intelligence neon glass interface screenshot">
  <defs><linearGradient id="g" x1="0" x2="1"><stop stop-color="#38d9ff"/><stop offset="1" stop-color="#a78bfa"/></linearGradient><filter id="b"><feGaussianBlur stdDeviation="30"/></filter></defs>
  <rect width="1200" height="675" fill="#06111f"/><circle cx="230" cy="110" r="220" fill="#38d9ff" opacity=".25" filter="url(#b)"/><circle cx="930" cy="180" r="260" fill="#a78bfa" opacity=".22" filter="url(#b)"/>
  <text x="72" y="105" fill="#3ff6a8" font-family="Inter,Arial" font-size="20" letter-spacing="4">CLEARGLASSINC ARTEMIS</text>
  <text x="72" y="180" fill="url(#g)" font-family="Inter,Arial" font-size="58" font-weight="800">Browser Intelligence</text>
  <rect x="72" y="245" width="660" height="330" rx="28" fill="rgba(12,30,52,.72)" stroke="rgba(133,220,255,.35)"/>
  <rect x="110" y="285" width="170" height="42" rx="21" fill="none" stroke="#38d9ff"/><rect x="300" y="285" width="150" height="42" rx="21" fill="none" stroke="#52677a"/><rect x="470" y="285" width="150" height="42" rx="21" fill="none" stroke="#52677a"/>
  <text x="125" y="313" fill="#eef9ff" font-family="Inter,Arial" font-size="17">Vendor advisory</text><text x="130" y="430" fill="#9bb7c9" font-family="Inter,Arial" font-size="28">Public source captured</text><text x="130" y="472" fill="#3ff6a8" font-family="Inter,Arial" font-size="20">hash · lineage · notes · citations</text>
  <rect x="770" y="245" width="355" height="155" rx="24" fill="rgba(12,30,52,.72)" stroke="rgba(133,220,255,.35)"/><text x="802" y="302" fill="#eef9ff" font-family="Inter,Arial" font-size="26" font-weight="700">Cited AI Summary</text><text x="802" y="344" fill="#9bb7c9" font-family="Inter,Arial" font-size="18">Every claim maps to sources.</text>
  <rect x="770" y="420" width="355" height="155" rx="24" fill="rgba(12,30,52,.72)" stroke="rgba(133,220,255,.35)"/><text x="802" y="477" fill="#eef9ff" font-family="Inter,Arial" font-size="26" font-weight="700">Audit + RBAC</text><text x="802" y="519" fill="#9bb7c9" font-family="Inter,Arial" font-size="18">Approval-gated agent actions.</text>
</svg>
